# xmcd
#
# Track frame offsets: 
#        150
#        13566
#        24426
#        34203
#        47455
#        61008
#        74830
#        89655
#        103249
#        116748
#        127700
#        141110
#        150700
#        163430
#        176116
#        189020
#        206948
#        220178
#
# Disc length: 3192 seconds
#
# Revision: 1
# Processed by: cddbd v1.5.2PL0 Copyright (c) Steve Scherf et al.
# Submitted via: ExactAudioCopyFreeDBPlugin 1.0
#
DISCID=050c7612
DTITLE=Etta James - Gold - Disc 1 of 2
DYEAR=2007
DGENRE=Blues
TTITLE0=The Wallflower (Dance wIth Me, Henry)
TTITLE1=Good Rockin' Daddy
TTITLE2=Tough Lover
TTITLE3=All I Could Do Is Cry
TTITLE4=If I Can't Have You
TTITLE5=My Dearest Darling
TTITLE6=A Sunday Kind of Love
TTITLE7=At Last
TTITLE8=Trust in Me
TTITLE9=Don't Cry, Baby
TTITLE10=Fool That I  Am
TTITLE11=Waiting for Charlie (to Come Home)
TTITLE12=Something's Got a Hold on Me
TTITLE13=Next Door to the Blues
TTITLE14=Stop the Wedding
TTITLE15=These Foolish Things (Remind Me of You)
TTITLE16=Pushover
TTITLE17=Baby, What You Want Me to Do?
EXTD=
EXTT0=
EXTT1=
EXTT2=
EXTT3=
EXTT4=
EXTT5=
EXTT6=
EXTT7=
EXTT8=
EXTT9=
EXTT10=
EXTT11=
EXTT12=
EXTT13=
EXTT14=
EXTT15=
EXTT16=
EXTT17=
PLAYORDER=
